<?xml version="1.0" encoding="UTF-8"?>
<!DOCTYPE svg PUBLIC "-//W3C//DTD SVG 1.1//EN" "http://www.w3.org/Graphics/SVG/1.1/DTD/svg11.dtd">
<svg version="1.1" xmlns="http://www.w3.org/2000/svg" xmlns:xlink="http://www.w3.org/1999/xlink" x="0" y="0" width="447.826" height="514.571" viewBox="0, 0, 447.826, 514.571">
  <g id="Layer_1">
    <path d="M445.267,173.428 L445.123,172.828 L372.851,107.465 L362.233,104.896 C356.297,95.568 349.78,88.213 349.5,87.897 L345.026,82.862 C342.869,79.215 340.004,74.533 336.825,69.765 C335.999,68.525 334.959,66.98 333.763,65.204 C326.323,54.153 308.901,28.272 307.149,21.548 C305.294,14.432 298.595,5.314 293.623,3.139 C289.772,1.456 285.654,3.392 282.643,4.807 C282.267,4.984 281.512,5.338 281.035,5.538 C279.834,5.071 278.476,4.292 277.147,3.529 C274.146,1.808 271.042,0.026 267.815,0.776 C265.983,1.199 264.28,2.286 262.401,3.486 C260.676,4.587 258.521,5.959 257.252,5.883 C255.723,5.798 255.25,5.562 254.653,5.263 C253.813,4.841 252.661,4.266 250.731,4.266 C248.5,4.266 246.459,5.559 244.091,7.059 C243.542,7.407 241.979,8.397 241.281,8.7 C240.633,8.548 239.5,8.117 238.711,7.815 C236.542,6.987 234.492,6.201 232.535,6.451 C229.729,6.802 228.989,8.168 221.853,22.855 C217.174,32.477 211.355,44.453 207.861,48.676 C206.352,50.5 206.323,52.989 207.776,56.073 C209.422,59.572 215.659,68.106 221.407,69.277 C221.771,69.826 222.149,70.374 222.538,70.914 C223.297,71.967 224.634,73.674 226.129,74.912 C223.965,82.473 221.392,89.986 217.5,94.887 C215.965,96.819 215.756,99.029 216.854,100.815 L157.829,120.35 L157.829,127.325 L139.731,133.78 L150.918,183.535 L3.016,182.381 L-0,180.557 L-0,429.857 L124.749,514.571 L370.663,507.465 L372.605,507.409 L372.605,255.858 L370.257,255.867 L237.745,188.065 L292.621,160.273 L290.475,107.89 C292.855,107.455 295.008,106.767 297.089,106.058 C298.987,109.002 302.758,115.178 306.31,122.918 C304.094,123.948 301.6,125.693 300.671,127.6 L298.463,127.498 L302.689,133.819 C304.932,137.172 306.85,140.064 308.494,142.563 C300.985,152.459 286.949,173.991 292.971,189.904 L294.305,192.763 L296.75,194.741 C308.765,204.445 368.203,252.338 394.36,271.147 L400.594,276.251 L400.992,275.767 C405.591,278.817 406.822,279.168 407.602,279.239 L408.305,279.303 L408.893,278.911 C430.694,264.381 443.896,241.512 447.071,212.775 C449.457,191.176 445.439,174.142 445.267,173.428" fill="#000000" id="path23542"/>
    <path d="M0,0 z" fill="#00FF00" id="path23593"/>
    <path d="M277.647,56.485 C277.647,56.485 277.647,56.484 277.647,56.483 L277.649,56.481 C277.648,56.483 277.647,56.484 277.647,56.485" fill="#00FF00" id="path23591"/>
    <path d="M298.713,101.271 L296.769,101.939 C294.066,102.869 291.271,103.832 288.171,104.192 L286.329,104.406 L286.331,104.475 C285.86,104.491 285.385,104.5 284.894,104.485 C283.961,104.457 282.994,104.375 281.975,104.219 C275.35,103.2 270.177,104.431 265.879,106.42 C264.601,104.237 263.003,101.793 262.198,101.679 L262.125,101.668 L262.052,101.682 C258.754,102.264 252.18,106.48 250.02,109.85 C249.214,107.051 249.974,103.681 251.585,99.092 C252.19,97.373 253.454,95.699 255.093,94.162 L255.235,94.115 L255.213,94.049 C255.583,93.709 255.97,93.375 256.373,93.049 C261.706,88.738 269.73,85.825 273.417,86.676 C273.395,86.814 273.372,86.955 273.349,87.097 C273.328,87.274 273.282,87.446 273.284,87.621 C273.283,87.795 273.282,87.963 273.281,88.129 C273.268,88.453 273.287,88.752 273.336,89.004 C273.408,89.504 273.456,89.836 273.456,89.836 C273.456,89.836 273.523,89.51 273.625,89.021 C273.661,88.779 273.742,88.506 273.858,88.224 C273.909,88.086 273.962,87.94 274.016,87.793 C274.066,87.647 274.16,87.515 274.23,87.377 L274.45,86.979 C274.454,86.974 274.458,86.969 274.461,86.965 L274.465,86.965 L274.471,86.951 C274.553,86.844 274.634,86.737 274.712,86.635 C274.864,86.402 275.073,86.25 275.21,86.098 C275.357,85.988 275.477,85.89 275.55,85.856 C277.429,85.013 281.841,83.599 285.517,82.633 C285.517,82.633 285.791,82.359 286.232,81.869 C286.408,81.616 286.623,81.31 286.869,80.959 C287.069,80.598 287.317,80.196 287.543,79.75 C287.755,79.299 288.013,78.819 288.222,78.297 C288.448,77.777 288.677,77.228 288.887,76.654 C289.329,75.513 289.727,74.276 290.114,73.039 C290.862,70.558 291.47,68.046 291.844,66.148 C292.033,65.199 292.158,64.401 292.235,63.842 C292.295,63.283 292.331,62.963 292.331,62.963 C292.331,62.963 292.267,63.279 292.157,63.831 C292.03,64.378 291.834,65.155 291.564,66.08 C291.023,67.927 290.197,70.359 289.242,72.732 C288.951,73.433 288.569,74.127 288.194,74.799 C288.153,74.703 288.114,74.611 288.071,74.508 C286.771,71.455 284.388,65.834 285.395,60.231 C289.346,58.229 296.285,52.523 298.316,50.823 C298.47,50.759 298.625,50.695 298.77,50.627 C299.653,50.209 300.314,49.718 300.711,49.318 C300.908,49.115 301.051,48.948 301.132,48.82 C301.22,48.699 301.267,48.635 301.267,48.635 C301.267,48.635 301.212,48.693 301.108,48.8 C301.012,48.914 300.849,49.059 300.632,49.228 C300.195,49.562 299.502,49.941 298.61,50.223 C296.823,50.796 294.299,50.986 291.817,50.823 C289.334,50.668 286.883,50.172 285.197,49.583 C284.448,49.328 283.869,49.055 283.475,48.833 C286.792,43.441 289.552,37.306 290.153,34.5 L288.345,34.113 C287.459,38.25 281.263,50.684 276.168,55.334 L275.926,55.557 L275.877,55.881 C275.866,55.957 274.638,63.548 265.728,71.373 L265.485,71.586 L265.427,71.904 C263.988,79.926 259.922,86.476 254.079,90.621 L254.073,90.604 L239.823,95.32 C237.564,95.319 235.424,94.953 233.513,94.252 C239.811,91.016 244.106,86.338 244.276,82.442 C244.361,80.493 243.449,78.787 241.634,77.461 C244.53,72.047 246.518,66.06 248.382,60.429 C248.919,58.804 249.442,57.228 249.972,55.708 C250.044,55.708 250.127,55.708 250.227,55.708 C250.563,55.713 251.047,55.726 251.627,55.759 C252.787,55.827 254.339,55.974 255.856,56.296 C257.367,56.616 258.85,57.14 259.775,57.841 C260.005,58.017 260.199,58.197 260.362,58.369 C260.511,58.549 260.642,58.711 260.723,58.862 C260.821,59.005 260.862,59.134 260.902,59.217 C260.939,59.304 260.959,59.348 260.959,59.348 C260.959,59.348 260.946,59.301 260.922,59.211 C260.895,59.123 260.871,58.984 260.794,58.827 C260.733,58.66 260.625,58.477 260.497,58.265 C260.355,58.062 260.18,57.843 259.966,57.624 C259.102,56.744 257.631,55.971 256.115,55.409 C254.595,54.846 253.021,54.459 251.832,54.212 C251.341,54.111 250.92,54.035 250.587,53.98 C250.875,53.192 251.166,52.418 251.466,51.668 C251.692,51.515 251.919,51.346 252.146,51.18 L252.167,51.258 C252.167,51.258 252.296,51.211 252.522,51.129 C252.753,51.047 253.094,50.942 253.507,50.827 C254.333,50.597 255.465,50.365 256.611,50.306 C256.9,50.28 257.183,50.296 257.467,50.297 C257.75,50.297 258.022,50.346 258.293,50.365 C258.558,50.406 258.81,50.467 259.056,50.516 C259.292,50.594 259.514,50.669 259.719,50.739 C259.913,50.838 260.091,50.93 260.25,51.009 C260.418,51.082 260.524,51.197 260.632,51.269 C260.84,51.427 260.959,51.517 260.959,51.517 C260.959,51.517 260.86,51.405 260.686,51.21 C260.593,51.118 260.502,50.975 260.349,50.871 C260.203,50.756 260.037,50.627 259.855,50.484 C259.655,50.37 259.438,50.245 259.208,50.114 C258.964,50.015 258.706,49.896 258.432,49.797 C258.156,49.719 257.868,49.611 257.57,49.552 C257.272,49.492 256.966,49.416 256.659,49.383 C255.937,49.279 255.216,49.244 254.549,49.244 C264.923,40.099 274.855,21.714 275.975,16.954 L275.764,16.904 C274.44,16.302 270.048,14.682 270.048,14.682 L273.75,17.866 C271.283,24.533 260.319,43.547 250.201,50.292 L249.964,50.45 L249.857,50.714 C248.716,53.531 247.701,56.599 246.625,59.848 C243.031,70.713 238.971,82.939 228.695,89.299 C228.267,88.353 227.485,87.359 226.274,87.129 C227.865,83.181 229.173,78.889 230.364,74.638 L230.789,73.121 L230.65,73.043 C230.791,72.537 230.93,72.029 231.066,71.535 C232.18,67.482 233.186,63.829 234.241,61.365 C234.495,61.359 234.781,61.355 235.125,61.362 C236.15,61.38 237.529,61.453 238.865,61.731 C239.195,61.811 239.538,61.868 239.853,61.976 C240.175,62.068 240.491,62.167 240.78,62.298 C241.084,62.406 241.351,62.551 241.603,62.699 C241.872,62.827 242.072,63.014 242.277,63.167 C242.497,63.312 242.621,63.511 242.766,63.665 C242.917,63.815 243.008,63.973 243.069,64.113 C243.209,64.388 243.29,64.543 243.29,64.543 C243.29,64.543 243.235,64.375 243.141,64.081 C243.102,63.926 243.035,63.749 242.907,63.569 C242.787,63.388 242.682,63.149 242.482,62.963 C242.296,62.766 242.106,62.528 241.851,62.348 C241.609,62.148 241.345,61.944 241.048,61.778 C240.76,61.587 240.446,61.429 240.123,61.274 C239.803,61.104 239.463,60.987 239.125,60.846 C237.768,60.319 236.35,60.007 235.28,59.81 C235.191,59.793 235.12,59.783 235.035,59.769 C235.209,59.477 235.385,59.216 235.564,59 C235.631,58.919 235.705,58.823 235.774,58.735 C235.875,58.705 235.976,58.675 236.095,58.644 C236.735,58.485 237.63,58.33 238.529,58.393 C238.976,58.426 239.431,58.486 239.838,58.614 C240.047,58.668 240.245,58.734 240.424,58.818 C240.608,58.895 240.786,58.965 240.933,59.06 C241.245,59.223 241.488,59.394 241.647,59.528 C241.814,59.655 241.91,59.729 241.91,59.729 C241.91,59.729 241.835,59.635 241.703,59.472 C241.577,59.299 241.378,59.069 241.101,58.825 C240.971,58.689 240.809,58.572 240.635,58.446 C240.467,58.31 240.276,58.189 240.068,58.077 C239.662,57.831 239.188,57.643 238.701,57.485 C238.108,57.294 237.5,57.197 236.935,57.146 C241.967,49.777 251.513,30.763 254.405,17.721 L254.41,17.709 C253.293,17.169 248.786,15.471 248.786,15.471 L252.318,18.509 C248.759,32.822 237.192,53.064 233.434,57.608 C232.564,58.66 231.966,60.363 231.396,62.515 C227.29,62.405 223.649,60.634 222.136,59.788 C222.153,59.707 222.154,59.609 222.178,59.535 C222.661,58.091 225.051,52.848 227.819,46.774 C237.701,25.103 239.217,21.056 238.716,19.85 L238.732,19.811 C237.616,19.271 234.091,18.206 234.091,18.206 L236.913,20.832 C236.241,23.849 229.972,37.598 226.138,46.007 C224.03,50.629 221.807,54.256 220.545,56.49 C216.888,55.995 214.413,54.688 212.898,53.556 C212.6,52.914 212.427,52.405 212.409,52.116 C216.34,47.229 222.239,35.093 226.991,25.317 C229.607,19.933 232.542,13.895 233.733,12.152 C234.516,12.313 235.825,12.812 236.679,13.139 C238.163,13.705 239.698,14.291 240.994,14.421 C242.83,14.604 244.923,13.276 247.144,11.87 C248.257,11.165 250.12,9.984 250.731,9.962 C251.314,9.962 251.545,10.078 252.102,10.357 C253,10.807 254.23,11.423 256.936,11.573 C260.039,11.74 262.968,9.883 265.543,8.24 C266.86,7.399 268.222,6.53 269.096,6.328 C270.157,6.089 272.369,7.357 274.324,8.479 C276.183,9.545 278.105,10.647 280.098,11.235 C281.489,11.644 282.992,10.939 285.071,9.961 C287.092,9.013 289.86,7.709 291.339,8.358 C294.467,9.727 300.129,17.209 301.635,22.985 C303.633,30.649 320.159,55.199 329.038,68.389 C330.226,70.154 331.261,71.691 332.084,72.926 C336.869,80.102 340.937,87.096 342.863,90.491 C343.299,97.412 342.049,104.365 338.693,110.895 C336.805,113.957 334.521,116.817 331.882,119.348 C326.358,124.641 319.885,128.049 313.145,129.309 C312.654,127.996 312.139,126.717 311.615,125.457 L311.791,125.414 L310.838,123.24 C308.241,117.318 305.434,112.158 303.221,108.398 C305.237,106.756 309.756,103.611 316.455,101.85 C316.538,101.846 316.616,101.847 316.702,101.838 C316.912,101.814 317.135,101.789 317.371,101.762 C317.603,101.713 317.846,101.66 318.1,101.605 C318.602,101.475 319.131,101.289 319.66,101.037 C320.189,100.787 320.713,100.467 321.22,100.098 C322.225,99.35 323.132,98.392 323.904,97.36 C325.441,95.28 326.459,92.939 327.096,91.164 C327.735,89.385 327.999,88.154 327.999,88.154 C327.999,88.154 327.622,89.356 326.828,91.055 C326.042,92.748 324.818,94.953 323.188,96.775 C322.371,97.681 321.455,98.477 320.514,99.049 C320.04,99.33 319.566,99.562 319.104,99.73 C318.641,99.898 318.192,100.01 317.776,100.08 C317.567,100.103 317.367,100.127 317.176,100.151 C316.985,100.154 316.804,100.158 316.633,100.162 C316.295,100.162 316.028,100.116 315.796,100.107 C315.365,100.029 315.09,99.979 314.993,99.961 L314.994,99.961 C308.197,98.703 303.32,99.916 298.806,101.408 z" fill="#FFFFFF" id="path23589"/>
    <path d="M226.889,90.336 L226.21,90.686 C225.702,90.59 225.228,90.396 225.002,90.07 C225.314,89.399 225.615,88.713 225.908,88.016 C226.986,88.11 227.589,89.051 227.888,89.764 C227.554,89.955 227.235,90.158 226.889,90.336" fill="#FFFFFF" id="path23587"/>
    <path d="M363.209,265.291 L363.209,272.353 L313.183,280.529 L363.209,288.705 L363.209,313.537 L316.997,321.78 L363.209,330.023 L363.209,354.708 L320.812,363.031 L363.209,371.355 L363.209,395.861 L324.625,404.283 L363.209,412.706 L363.209,436.989 L328.441,445.535 L363.209,454.081 L363.209,478.08 L332.256,486.786 L363.209,495.491 L363.209,498.282 L132.624,504.945 L132.545,499.496 L151.104,494.276 L132.394,489.015 L131.941,457.555 L157.635,451.526 L131.767,445.457 L131.334,415.386 L164.167,408.777 L131.143,402.131 L130.724,373.071 L170.698,366.028 L130.521,358.948 L130.113,330.662 L177.23,323.279 L129.9,315.862 L129.5,288.184 L183.762,280.529 L129.28,272.844 L129.185,266.186 z" fill="#FFFFFF" id="path23585"/>
    <path d="M176.058,217.064 L183.062,213.517 L236.388,213.144 L261.323,226.309 L252.281,225.801 L235.115,216.211 z" fill="#FFFFFF" id="path23583"/>
    <path d="M220.483,98.987 C220.258,98.772 219.842,98.371 220.633,97.375 C222.118,95.506 223.413,93.336 224.569,90.974 C225.122,91.414 225.915,91.601 226.534,91.67 L226.608,91.758 C226.771,91.949 226.96,92.117 227.134,92.299 C225.577,95.084 222.947,98.828 220.499,99 C220.495,98.996 220.487,98.992 220.483,98.987" fill="#FFFFFF" id="path23581"/>
    <path d="M159.745,213.681 L159.829,214.051 L159.829,217.299 L88.411,218.332 L80.86,214.233 z" fill="#FFFFFF" id="path23579"/>
    <path d="M155.086,192.963 L159.331,211.836 L73.669,212.435 L86.972,219.654 L99.368,227.471 L265.401,228.392 L269.682,228.633 L236.84,211.291 L186.765,211.642 L222.605,193.491 L227.799,193.531 L353.665,257.932 L125.531,258.805 L14.842,191.869 z" fill="#FFFFFF" id="path23577"/>
    <path d="M252.564,116.164 L253.028,116.514 L253.544,116.246 C255.062,115.461 256.604,114.403 258.221,113.275 C264.242,111.795 278.846,108.849 284.993,113.289 L286.778,156.847 L163.526,219.267 L163.526,124.465 L251.601,95.318 C250.829,96.34 250.221,97.397 249.841,98.479 C247.021,106.51 246.619,111.707 252.564,116.164" fill="#FFFFFF" id="path23575"/>
    <path d="M261.941,102.652 C261.988,102.642 262.041,102.625 262.086,102.615 C262.575,102.933 263.918,104.926 265.04,106.822 C264.595,107.045 264.159,107.272 263.732,107.508 C260.866,106.125 261.189,104.426 261.941,102.652" fill="#FFFFFF" id="path23573"/>
    <path d="M262.777,108.054 C260.898,109.156 259.185,110.347 257.586,111.463 C256.055,112.534 254.6,113.553 253.211,114.326 C251.9,113.265 251.008,112.158 250.445,110.957 C251.579,108.369 257.095,104.347 260.811,102.994 C260.307,104.437 260.067,106.491 262.777,108.054" fill="#FFFFFF" id="path23571"/>
    <path d="M235.454,96.705 C235.395,96.748 235.335,96.784 235.277,96.825 L224.865,100.27 C224.252,100.275 223.687,100.233 223.163,100.162 L221.698,99.649 C221.694,99.648 221.69,99.647 221.686,99.645 C224.204,98.679 226.479,95.33 227.806,92.989 C229.844,94.834 232.49,96.084 235.454,96.705" fill="#FFFFFF" id="path23569"/>
    <path d="M239.521,81.017 C240.106,80.125 240.661,79.211 241.183,78.275 C242.319,79.127 243.006,80.125 243.249,81.254 C242.101,81.709 240.824,81.739 239.934,81.297 C239.771,81.217 239.637,81.121 239.521,81.017" fill="#FFFFFF" id="path23567"/>
    <path d="M239.523,82.127 C240.09,82.407 240.758,82.547 241.459,82.547 C242.079,82.547 242.723,82.433 243.347,82.217 C243.347,82.278 243.355,82.338 243.353,82.401 C243.193,86.053 238.717,90.736 232.492,93.838 C231.101,93.211 229.853,92.399 228.808,91.398 C233.097,88.955 236.381,85.617 239.012,81.797 C239.165,81.918 239.332,82.03 239.523,82.127" fill="#FFFFFF" id="path23565"/>
    <path d="M222.088,60.82 C223.825,61.75 227.238,63.269 231.162,63.423 C230.613,65.622 230.061,68.217 229.283,71.045 C229.19,71.385 229.094,71.732 228.999,72.08 C228.085,71.418 226.92,70.153 225.783,68.575 C225.252,67.838 224.742,67.085 224.268,66.337 L223.698,65.44 L223.661,65.439 C222.743,63.68 222.186,62.052 222.088,60.82" fill="#FFFFFF" id="path23563"/>
    <path d="M219.94,62.238 C219.075,61.556 218.061,60.62 216.927,59.357 C215.605,57.886 214.602,56.501 213.868,55.316 C215.381,56.172 217.426,56.964 220.069,57.359 C219.84,57.792 219.67,58.148 219.584,58.412 C219.239,59.445 219.437,60.787 219.94,62.238" fill="#FFFFFF" id="path23561"/>
    <path d="M330.94,170.902 L331.38,169.975 L325.851,159.976 C326.807,159.813 327.921,159.599 329.155,159.316 C334.834,158.584 344.038,156.806 351.9,152.559 C344.977,163.791 334.125,175.629 317.291,183.123 C325.169,178.189 330.174,172.516 330.94,170.902" fill="#FFFFFF" id="path23559"/>
    <path d="M335.407,151.668 C329.814,153.725 325.002,154.448 322.823,154.687 C321.507,152.144 318.052,146.594 309.327,133.5 C313.827,133.24 318.267,132.119 322.487,130.201 C327.257,138.055 333.373,148.174 335.407,151.668" fill="#FFFFFF" id="path23557"/>
    <path d="M336.262,151.342 C335.037,149.156 331.783,143.717 323.325,129.799 C327.279,127.891 331.031,125.284 334.44,122.017 C342.008,114.765 346.949,105.004 348.173,95.187 C352.149,100.11 359.214,109.496 363.254,118.612 C360.033,138.207 346.929,147.213 336.262,151.342" fill="#FFFFFF" id="path23555"/>
  </g>
</svg>
